<?xml version="1.0" encoding="UTF-8" standalone="no"?>
<!-- Created with Inkscape (http://www.inkscape.org/) -->

<svg
   xmlns:dc="http://purl.org/dc/elements/1.1/"
   xmlns:cc="http://creativecommons.org/ns#"
   xmlns:rdf="http://www.w3.org/1999/02/22-rdf-syntax-ns#"
   xmlns:svg="http://www.w3.org/2000/svg"
   xmlns="http://www.w3.org/2000/svg"
   xmlns:sodipodi="http://sodipodi.sourceforge.net/DTD/sodipodi-0.dtd"
   xmlns:inkscape="http://www.inkscape.org/namespaces/inkscape"
   width="160"
   height="160"
   viewBox="0 0 42.333333 42.333331"
   version="1.1"
   id="svg8"
   inkscape:version="0.92.1 r15371"
   sodipodi:docname="arrow.svg">
  <defs
     id="defs2" />
  <sodipodi:namedview
     id="base"
     pagecolor="#ffffff"
     bordercolor="#666666"
     borderopacity="1.0"
     inkscape:pageopacity="0.0"
     inkscape:pageshadow="2"
     inkscape:zoom="2.8"
     inkscape:cx="88.044289"
     inkscape:cy="48.414151"
     inkscape:document-units="mm"
     inkscape:current-layer="layer1"
     showgrid="false"
     inkscape:snap-bbox="true"
     fit-margin-top="0"
     fit-margin-left="0"
     fit-margin-right="0"
     fit-margin-bottom="0"
     units="px"
     inkscape:window-width="1920"
     inkscape:window-height="1019"
     inkscape:window-x="1911"
     inkscape:window-y="-8"
     inkscape:window-maximized="1"
     showguides="false" />
  <metadata
     id="metadata5">
    <rdf:RDF>
      <cc:Work
         rdf:about="">
        <dc:format>image/svg+xml</dc:format>
        <dc:type
           rdf:resource="http://purl.org/dc/dcmitype/StillImage" />
        <dc:title></dc:title>
      </cc:Work>
    </rdf:RDF>
  </metadata>
  <g
     inkscape:label="Layer 1"
     inkscape:groupmode="layer"
     id="layer1"
     transform="translate(-51.15865,-183.48656)">
    <path
       id="path3728"
       style="fill:#ff0000;stroke-width:0.78466487"
       d="m 439.3257,-331.78995 c -0.84671,0.15017 -1.69363,0.29968 -2.54028,0.45031 0.52927,0.22669 1.02789,0.46899 1.4939,0.72741 0.3658,-0.39452 0.67258,-0.7165 1.09033,-1.17772 -0.0158,-4.3e-4 -0.0283,4.7e-4 -0.0441,0 z m 6.511,1.47935 c -0.72769,0.227 -1.09556,0.33746 -1.80148,0.55711 0.58373,-0.13964 1.16586,-0.28344 1.74127,-0.44885 0.0189,-0.0369 0.0441,-0.0688 0.0602,-0.10822 z"
       inkscape:connector-curvature="0" />
    <path
       id="path3736"
       style="fill:#ff0000;stroke-width:0.78466487"
       d="m 439.37453,-331.79718 c -0.86301,0.15315 -1.72611,0.30584 -2.58911,0.45897 0.52858,0.22645 1.0268,0.4679 1.49229,0.72598 0.36768,-0.39665 0.67639,-0.72069 1.09682,-1.18495 z m 8.2506,0.99442 c -0.20627,0.0744 -0.41099,0.15265 -0.62002,0.22228 0.002,0.0337 0.006,0.0673 0.0128,0.10112 0.18139,-0.096 0.41527,-0.22067 0.60862,-0.3233 z m -0.62002,0.22228 c -0.002,-0.0293 -0.006,-0.0588 -0.0104,-0.0881 -0.92619,0.28894 -1.77834,0.5501 -2.95525,0.91504 1.00113,-0.23952 1.99646,-0.50458 2.965,-0.82701 z"
       inkscape:connector-curvature="0" />
    <path
       style="fill:#ff0000;stroke-width:0.08194326"
       d="m 77.256289,198.47627 -0.806602,0.44749 c 0.0368,0.0856 0.07326,0.17146 0.109906,0.2572 -0.123928,0.10522 -0.153631,0.245 -0.04654,0.42893 0.08581,0.0276 0.173251,0.0536 0.262048,0.0786 0.107422,0.25463 0.214093,0.50966 0.319917,0.76495 -0.09753,0.0188 -0.194853,0.0384 -0.29203,0.0585 -3.572069,-0.13432 -7.149583,-0.28373 -10.723219,-0.11475 -2.21347,0.12838 -4.44897,0.28159 -6.585078,0.9213 -1.206421,0.42048 -2.351275,1.06436 -3.326986,1.89394 -0.389242,0.39159 -0.768303,0.77904 -0.796883,1.36392 8.42e-4,0.98137 0.30741,1.91809 0.567592,2.8564 0.385148,1.32838 0.773895,2.66248 0.942724,4.03959 l 0.819754,-0.42965 c -0.197739,-1.37544 -0.584819,-2.71127 -0.969292,-4.04317 -0.254654,-0.93338 -0.553813,-1.86645 -0.538384,-2.84188 0.04868,-0.56176 0.44977,-0.92602 0.828121,-1.29892 0.425396,-0.3114 0.84307,-0.72527 1.341272,-0.92165 0.09439,-0.0372 -0.344059,0.19667 -0.243729,0.18217 0.23236,-0.0336 0.440891,-0.16172 0.661321,-0.24259 2.135548,-0.66152 4.377548,-0.82296 6.595637,-0.96099 3.348505,-0.17482 6.701301,-0.058 10.049161,0.0762 -0.150991,0.10031 -0.284985,0.22705 -0.385381,0.40222 -0.0632,0.11028 0.231371,0.11028 0.355513,0.13663 0.489325,0.10447 1.016568,0.12062 1.534491,0.12623 l -0.15297,0.11403 c 0.127557,-0.0166 0.255033,-0.0315 0.38254,-0.0471 0.146536,-0.0148 0.29327,-0.0255 0.440151,-0.0352 0.05693,0.14192 0.11369,0.28386 0.170164,0.426 0.132344,0.43177 0.303994,0.8519 0.44355,1.28158 -0.135809,0.0121 -0.213038,0.0182 -0.631339,0.048 l -0.737112,0.54409 c 0.646815,-0.0452 0.319158,-0.0198 0.982855,-0.0769 0.165133,-0.018 0.331041,-0.0358 0.496949,-0.0543 -0.0066,0.0183 -0.0032,0.0304 0.0082,0.0349 -0.01157,0.36763 0.238829,0.21191 0.523912,-0.064 0.115016,-0.0179 0.191486,-0.0373 0.238679,-0.0702 0.347296,-0.0533 0.691669,-0.12096 1.02822,-0.21753 0.349738,-0.12971 0.691965,-0.2795 1.037048,-0.42209 0.159242,-0.001 0.318417,-0.005 0.47713,-0.006 0.501833,0.001 1.003649,0.003 1.505481,0.005 0.112377,7.6e-4 0.224853,0.001 0.337294,0.001 0.08664,9.4e-4 0.18203,0.0411 0.259969,0.003 5.59e-4,-2.9e-4 0.0012,-5.7e-4 0.0017,-8.6e-4 0.03416,9.6e-4 0.06833,0.001 0.102317,0.003 0.152641,-0.12904 0.331964,-0.23376 0.481602,-0.36555 0.09027,-0.0626 0.180743,-0.12476 0.273086,-0.18365 -0.0082,2.8e-4 -0.01485,4.7e-4 -0.02227,6.6e-4 l 0.345825,-0.2369 c -0.05644,-0.0148 -0.112871,-0.0281 -0.169355,-0.0421 -0.212278,-0.0909 -0.417543,-0.1962 -0.620019,-0.30708 0.555992,-0.14588 1.13035,-0.21279 1.702331,-0.29263 0.08152,-0.0148 0.899011,-0.14753 0.960496,-0.18251 0.05661,-0.0322 0.102979,-0.0584 0.154456,-0.0876 0.0731,-0.0132 0.133169,-0.0425 0.217657,-0.11632 0.615941,-0.0305 1.231883,-0.0639 1.847957,-0.0857 0.193895,-0.006 0.388037,-0.005 0.581981,-0.01 0.118982,-0.003 0.248829,0.0348 0.357031,-0.0149 0.325132,-0.14982 0.607229,-0.37943 0.910826,-0.56915 -0.210891,-0.1429 -0.548301,-0.15809 -0.787642,-0.20859 -0.470149,-0.0993 -0.936222,-0.21745 -1.409325,-0.3026 -0.751058,-0.19419 -1.495103,-0.42568 -2.279327,-0.43951 -0.679392,-0.066 -1.357017,-0.14606 -2.033716,-0.23378 0.08515,-0.0542 0.169273,-0.10969 0.252557,-0.16632 0.03712,-0.0252 -0.08927,-0.009 -0.133994,-0.0121 -0.02772,-0.001 -0.05544,-0.003 -0.08334,-0.005 -0.0032,-0.0339 -0.06865,-0.0242 -0.144059,-0.009 -0.700446,-0.0363 -1.400827,-0.0739 -2.100812,-0.11764 -0.154125,-0.0224 -0.308433,-0.0445 -0.462608,-0.0671 -1.423616,-0.15759 -2.853403,-0.26389 -4.286707,-0.24905 -0.0472,-0.115 -0.09472,-0.23006 -0.141584,-0.34527 z m 2.962366,1.10266 c 0.422904,0.0317 0.846007,0.0602 1.269226,0.0875 0.15858,0.0226 0.317079,0.0452 0.475611,0.0678 -0.0132,0.0132 -0.02575,0.0276 -0.03878,0.0422 -0.475332,-0.0539 -0.950844,-0.10629 -1.427264,-0.15165 -0.09341,-0.0132 -0.186189,-0.0294 -0.278812,-0.0457 z m -2.366836,0.34395 c 0.520958,0.088 1.06076,0.15 1.589953,0.20284 -0.480018,0.0441 -0.958764,0.10063 -1.435135,0.17194 -0.05165,-0.12492 -0.103129,-0.24989 -0.154786,-0.37478 z m 7.516414,0.2568 c 0.09257,0.01 0.185316,0.0202 0.278005,0.0299 0.777789,0.0238 1.520877,0.23731 2.267693,0.43057 0.179554,0.0335 0.358185,0.0715 0.536602,0.1104 -0.419753,0.0218 -0.839523,0.0438 -1.259375,0.0627 -1.681058,0.0689 -3.363372,0.0985 -5.045669,0.11462 -0.126732,10e-4 -0.253267,10e-4 -0.379802,10e-4 -0.829078,-0.19558 -1.678469,-0.27416 -2.531819,-0.31791 0.607722,-0.0448 1.216585,-0.0703 1.823517,-0.0826 0.02625,-7e-5 1.551636,0.0247 1.645646,-0.0232 0.017,-0.009 0.03366,-0.0179 0.0505,-0.0269 0.422013,0.0465 0.844258,0.0914 1.267114,0.13087 0.317211,0.0303 1.077922,0.25106 1.184606,-0.33021 0.05462,-0.033 0.108748,-0.0666 0.163037,-0.0998 z m -8.995807,0.85273 c 0.325084,0.0175 0.651586,0.0308 0.978534,0.0434 0.0049,0.01 0.0082,0.0202 0.0132,0.0304 -0.205068,-0.01 -0.413022,-0.0214 -0.633616,-0.0384 -0.119308,-0.01 -0.238367,-0.0222 -0.35736,-0.0355 z m 1.972512,0.0864 c 0.07228,0.003 0.144555,0.006 0.216799,0.0121 -0.05924,0.003 -0.118645,0.006 -0.177888,0.01 -0.0099,-3.9e-4 -0.01995,-5.8e-4 -0.03019,-9.4e-4 -0.0032,-0.006 -0.0066,-0.0148 -0.0082,-0.0214 z m 5.961215,0.48018 c -0.0066,0.003 -0.01485,0.005 -0.02162,0.009 -0.162872,0.0654 -0.326254,0.12937 -0.489967,0.19258 -0.07277,-0.0416 -0.145546,-0.0832 -0.218285,-0.12459 0.02129,-0.009 0.04241,-0.0193 0.06369,-0.0317 0.222113,-0.0132 0.444143,-0.0282 0.66614,-0.0438 z m -5.732684,0.0838 c 0.706273,0.01 1.412611,0.0166 2.118948,0.0193 -0.291402,0.15544 -0.559192,0.35119 -0.785909,0.60545 -0.04225,-0.0189 -0.08416,-0.0388 -0.125908,-0.0604 l -0.77246,0.50628 c 0.134325,0.0729 0.271602,0.13135 0.411107,0.1786 -0.11369,0.0649 -0.225826,0.13382 -0.336074,0.20687 -0.150329,-0.49144 -0.353086,-0.96683 -0.509686,-1.45624 z m 3.119528,0.0261 c -8.3e-5,4.8e-4 -1.82e-4,8.5e-4 -2.81e-4,0.001 -0.02013,0.0967 0.117825,0.0639 0.256106,0.0308 0.03778,0.0166 0.07558,0.0323 0.112871,0.0491 -0.0099,0.0443 -0.0099,0.0858 -0.0049,0.11705 -0.46061,0.14289 -0.921387,0.28437 -1.371339,0.44994 -0.03976,-0.0211 -0.06716,-0.0449 -0.07739,-0.0719 -0.03301,-0.0862 0.07673,-0.23218 0.106259,-0.28386 0.03251,-0.0336 0.0594,-0.0605 0.08384,-0.0855 0.275083,-0.0864 0.560628,-0.13563 0.840679,-0.20421 0.01485,-0.001 0.02954,-0.003 0.03993,-0.003 0.0049,-2e-5 0.0099,-2e-5 0.01485,-6e-5 z m 0.744159,0.26397 c 0.126733,0.0658 0.252048,0.13448 0.376817,0.20439 -0.144555,0.0568 -0.288616,0.11415 -0.43213,0.17315 -0.149671,0.0578 -0.298615,0.11765 -0.447262,0.17813 -0.0049,-9e-5 -0.0099,-3.7e-4 -0.01485,-4.5e-4 -0.06749,-0.005 -0.357904,-0.0131 -0.648764,-0.044 0.134489,-0.0406 0.268979,-0.0814 0.402707,-0.12326 0.332658,-0.10861 0.547476,-0.215 0.763665,-0.38793 z m 0.683418,0.37743 c 0.134322,0.0761 0.268779,0.15198 0.404587,0.22497 -0.04868,0 -0.09753,-10e-6 -0.146204,0 -0.260941,-0.006 -0.521849,-0.0164 -0.782626,-0.0252 0.174902,-0.0661 0.349869,-0.13218 0.524226,-0.1997 z m -3.343092,0.67889 c 0.188136,0.0393 0.379488,0.0621 0.572675,0.0754 -0.321008,0.0729 -0.647642,0.12343 -0.975332,0.16546 0.0495,-0.0556 0.09769,-0.10969 0.135643,-0.15016 0.09077,0.0208 0.178812,-0.0308 0.26708,-0.0908 z"
       id="path3738"
       inkscape:connector-curvature="0" />
  </g>
</svg>
